<?xml version="1.0" standalone="no"?><!DOCTYPE svg PUBLIC "-//W3C//DTD SVG 1.1//EN" "http://www.w3.org/Graphics/SVG/1.1/DTD/svg11.dtd"><svg t="1494038301686" class="icon" style="" viewBox="0 0 1024 1024" version="1.1" xmlns="http://www.w3.org/2000/svg" p-id="2370" xmlns:xlink="http://www.w3.org/1999/xlink" width="16" height="16"><defs><style type="text/css"></style></defs><path d="M426.688 869.152q42.272 18.272 80 18.272 214.848 0 214.848-191.424 0-65.152-23.424-102.848-15.424-25.152-35.136-42.272t-38.56-26.56-46.016-14.272-48-6.016-54.016-1.152q-41.728 0-57.728 5.728 0 30.272-0.288 90.848t-0.288 90.272q0 4.576-0.576 38.56t-0.288 55.136 2.56 47.712 6.848 38.016zM418.688 442.848q24 4 62.272 4 46.848 0 81.728-7.424t62.848-25.44 42.56-51.136 14.56-81.152q0-40-16.576-70.016t-45.152-46.848-61.728-24.864-70.848-8q-28.576 0-74.272 7.424 0 28.576 2.272 86.272t2.272 86.848q0 15.424-0.288 45.728t-0.288 45.152q0 26.272 0.576 39.424zM109.536 950.848l1.152-53.728q8.576-2.272 48.576-9.152t60.576-15.424q4-6.848 7.136-15.424t4.864-19.136 3.136-18.56 1.728-21.44 0.288-19.424l0-37.44q0-561.152-12.576-585.728-2.272-4.576-12.576-8.288t-25.44-6.272-28.288-4-27.712-2.56-17.44-1.728l-2.272-47.424q56-1.152 194.272-6.56t213.152-5.44q13.152 0 39.136 0.288t38.56 0.288q40 0 78.016 7.424t73.44 24 61.728 40.576 42.272 59.712 16 78.56q0 29.728-9.44 54.56t-22.272 41.152-36.864 32.864-41.728 25.728-48 22.848q88 20 146.56 76.576t58.56 141.728q0 57.152-20 102.56t-53.44 74.56-78.848 48.864-93.44 27.712-100.576 8q-25.152 0-75.424-1.728t-75.424-1.728q-60.576 0-175.424 6.272t-132 6.848z" p-id="2371" fill="#1296db"></path></svg>