<?xml version="1.0" standalone="no"?><!DOCTYPE svg PUBLIC "-//W3C//DTD SVG 1.1//EN" "http://www.w3.org/Graphics/SVG/1.1/DTD/svg11.dtd"><svg t="1494038670861" class="icon" style="" viewBox="0 0 1024 1024" version="1.1" xmlns="http://www.w3.org/2000/svg" p-id="5501" xmlns:xlink="http://www.w3.org/1999/xlink" width="16" height="16"><defs><style type="text/css"></style></defs><path d="M981.828 92.946h-939.66c-21.523 0-39.122 16.767-39.122 37.578v762.835c0 20.929 17.598 37.817 39.122 37.817h939.66c21.644 0 39.122-16.887 39.122-37.817v-762.953c0-20.691-17.362-37.458-39.122-37.458v0zM962.091 870.526h-898.991v-89.779l220.229-202.869 138.892 133.897 0.356 0.594 0.475 0.356 0.594 0.475 0.356 0.356 0.356 0.475 0.475 0.356 82.289 79.554c9.155 8.797 24.020 8.797 33.294 0 9.276-8.919 9.276-23.188 0-31.989l-66.95-64.688 189.549-183.485 299.069 266.842v89.899zM942.706 719.386v0l-262.92-253.643c-9.039-8.797-24.139-8.797-33.294 0l-206.437 199.062-140.2-135.086c-9.155-8.919-24.139-8.919-33.294 0l-203.461 191.095v-568.886h898.991v584.464l-19.383-17.005zM298.311 472.281v0c74.795 0 136.515-59.456 136.515-131.759 0-72.061-61.715-131.637-136.515-131.637-74.795 0-136.396 59.456-136.396 131.637 0 72.18 61.598 131.759 136.396 131.759v0zM298.311 254.196v0c49.23 0 89.423 38.766 89.423 86.332 0 47.803-40.193 86.451-89.423 86.451-49.351 0-89.542-38.646-89.542-86.451 0-47.566 40.193-86.332 89.542-86.332v0z" p-id="5502" fill="#1296db"></path></svg>