<?xml version="1.0" standalone="no"?><!DOCTYPE svg PUBLIC "-//W3C//DTD SVG 1.1//EN" "http://www.w3.org/Graphics/SVG/1.1/DTD/svg11.dtd"><svg t="1494038805792" class="icon" style="" viewBox="0 0 1106 1024" version="1.1" xmlns="http://www.w3.org/2000/svg" p-id="7397" xmlns:xlink="http://www.w3.org/1999/xlink" width="17.28125" height="16"><defs><style type="text/css"></style></defs><path d="M150.997844 0c23.688093 0 43.776425 8.035953 60.275841 24.110956 16.494769 16.070356 24.741379 35.952679 24.741379 59.634576l0 64.716681c0 23.681897-8.24661 43.776425-24.741379 60.269645-16.499416 16.494769-36.587748 24.747574-60.275841 24.747574l-67.252312 0c-22.840817 0-42.504737-8.252806-59.004153-24.747574C8.24661 192.238638 0 172.144109 0 148.462213l0-64.716681c0-23.681897 8.24661-43.564219 24.741379-59.634576 16.499416-16.076552 36.163336-24.110956 59.004153-24.110956L150.997844 0 150.997844 0zM1021.465933 0c22.840817 0 42.504737 8.035953 58.999506 24.110956 16.499416 16.070356 24.747574 35.952679 24.747574 59.634576l0 64.716681c0 23.681897-8.24661 43.776425-24.747574 60.269645-16.49322 16.494769-36.158689 24.747574-58.999506 24.747574L479.641667 233.479432c-23.681897 0-43.774877-8.252806-60.269645-24.747574-16.49322-16.49322-24.746026-36.587748-24.746026-60.269645l0-64.716681c0-23.681897 8.252806-43.564219 24.746026-59.634576 16.494769-16.076552 36.587748-24.110956 60.269645-24.110956L1021.465933 0 1021.465933 0zM150.997844 394.624448c23.688093 0 43.776425 8.252806 60.275841 24.747574 16.494769 16.49322 24.741379 36.587748 24.741379 60.269645l0 64.716681c0 22.840817-8.24661 42.503189-24.741379 59.005702-16.499416 16.49322-36.587748 24.73983-60.275841 24.73983l-67.252312 0c-22.840817 0-42.504737-8.245061-59.004153-24.73983C8.24661 586.863086 0 567.200714 0 544.358348L0 479.641667c0-23.681897 8.24661-43.776425 24.741379-60.269645 16.499416-16.494769 36.163336-24.747574 59.004153-24.747574L150.997844 394.624448 150.997844 394.624448zM1021.465933 394.624448c22.840817 0 42.504737 8.252806 58.999506 24.747574 16.499416 16.49322 24.747574 36.587748 24.747574 60.269645l0 64.716681c0 22.840817-8.24661 42.503189-24.747574 59.005702-16.49322 16.49322-36.158689 24.73983-58.999506 24.73983L479.641667 628.10388c-23.681897 0-43.774877-8.245061-60.269645-24.73983C402.878802 586.863086 394.625997 567.200714 394.625997 544.358348L394.625997 479.641667c0-23.681897 8.252806-43.776425 24.746026-60.269645 16.494769-16.494769 36.587748-24.747574 60.269645-24.747574L1021.465933 394.624448 1021.465933 394.624448zM150.997844 790.526779c23.688093 0 43.776425 8.24661 60.275841 24.741379 16.494769 16.49322 24.741379 36.164885 24.741379 59.005702l0 64.710485c0 23.688093-8.24661 43.774877-24.741379 60.275841-16.499416 16.49322-36.587748 24.73983-60.275841 24.73983l-67.252312 0c-22.840817 0-42.504737-8.245061-59.004153-24.73983C8.24661 982.759221 0 962.672437 0 938.984345L0 874.27386c0-22.840817 8.24661-42.510933 24.741379-59.005702 16.499416-16.49322 36.163336-24.741379 59.004153-24.741379L150.997844 790.526779 150.997844 790.526779zM1021.465933 790.526779c22.840817 0 42.504737 8.24661 58.999506 24.741379 16.499416 16.49322 24.747574 36.164885 24.747574 59.005702l0 64.710485c0 23.688093-8.24661 43.774877-24.747574 60.275841-16.49322 16.49322-36.158689 24.73983-58.999506 24.73983L479.641667 1024.000015c-23.681897 0-43.774877-8.245061-60.269645-24.73983-16.49322-16.500965-24.746026-36.587748-24.746026-60.275841L394.625997 874.27386c0-22.840817 8.252806-42.510933 24.746026-59.005702 16.494769-16.49322 36.587748-24.741379 60.269645-24.741379L1021.465933 790.526779 1021.465933 790.526779zM1021.465933 790.526779" p-id="7398" fill="#1296db"></path></svg>