<?xml version="1.0" standalone="no"?><!DOCTYPE svg PUBLIC "-//W3C//DTD SVG 1.1//EN" "http://www.w3.org/Graphics/SVG/1.1/DTD/svg11.dtd"><svg t="1494038550268" class="icon" style="" viewBox="0 0 1092 1024" version="1.1" xmlns="http://www.w3.org/2000/svg" p-id="4056" xmlns:xlink="http://www.w3.org/1999/xlink" width="17.0625" height="16"><defs><style type="text/css"></style></defs><path d="M1.365333 1022.907733V554.1888a508.996267 508.996267 0 0 1 29.149867-189.986133 493.1584 493.1584 0 0 1 90.385067-156.330667 498.210133 498.210133 0 0 1 139.332266-111.8208 495.342933 495.342933 0 0 1 176.128-56.593067V241.664c-77.6192 26.624-130.730667 65.809067-159.266133 117.9648-28.672 52.087467-42.871467 115.9168-42.871467 191.419733h202.1376v471.8592H1.365333z m652.561067 0V554.1888a506.402133 506.402133 0 0 1 29.013333-189.986133 495.616 495.616 0 0 1 90.385067-156.330667A499.985067 499.985067 0 0 1 1088.989867 39.458133V241.664c-77.687467 26.624-130.798933 65.809067-159.3344 117.9648-28.672 52.087467-42.871467 115.9168-42.871467 191.419733h202.205867v471.8592H653.994667z" fill="#1296db" p-id="4057"></path></svg>